<svg width="48" height="48" viewBox="0 0 48 48" fill="none" xmlns="http://www.w3.org/2000/svg">
<rect width="48" height="48" rx="24" fill="#EABD11"/>
<path d="M29.293 14.293C29 14.586 29 15.057 29 16V29C29 29.943 29 30.414 29.293 30.707C29.586 31 30.057 31 31 31C31.943 31 32.414 31 32.707 30.707C33 30.414 33 29.943 33 29V16C33 15.057 33 14.586 32.707 14.293C32.414 14 31.943 14 31 14C30.057 14 29.586 14 29.293 14.293ZM22 19C22 18.057 22 17.586 22.293 17.293C22.586 17 23.057 17 24 17C24.943 17 25.414 17 25.707 17.293C26 17.586 26 18.057 26 19V29C26 29.943 26 30.414 25.707 30.707C25.414 31 24.943 31 24 31C23.057 31 22.586 31 22.293 30.707C22 30.414 22 29.943 22 29V19ZM15.293 21.293C15 21.586 15 22.057 15 23V29C15 29.943 15 30.414 15.293 30.707C15.586 31 16.057 31 17 31C17.943 31 18.414 31 18.707 30.707C19 30.414 19 29.943 19 29V23C19 22.057 19 21.586 18.707 21.293C18.414 21 17.943 21 17 21C16.057 21 15.586 21 15.293 21.293ZM15 33.25C14.8011 33.25 14.6103 33.329 14.4697 33.4697C14.329 33.6103 14.25 33.8011 14.25 34C14.25 34.1989 14.329 34.3897 14.4697 34.5303C14.6103 34.671 14.8011 34.75 15 34.75H33C33.1989 34.75 33.3897 34.671 33.5303 34.5303C33.671 34.3897 33.75 34.1989 33.75 34C33.75 33.8011 33.671 33.6103 33.5303 33.4697C33.3897 33.329 33.1989 33.25 33 33.25H15Z" fill="black"/>
</svg>
