<svg width="60" height="60" viewBox="0 0 60 60" fill="none" xmlns="http://www.w3.org/2000/svg">
<rect width="60" height="60" rx="30" fill="#EABD11"/>
<path fill-rule="evenodd" clip-rule="evenodd" d="M29.7918 23.0884C32.9102 23.0884 34.8598 19.7189 33.3006 17.0228C32.9449 16.4079 32.4332 15.8973 31.8171 15.5423C31.2009 15.1872 30.5019 15.0002 29.7904 15C26.672 15 24.7224 18.3708 26.2816 21.0656C26.6373 21.6805 27.149 22.1911 27.7651 22.5461C28.3813 22.9012 29.0803 23.0882 29.7918 23.0884ZM28.4408 37.2396H18.8557L15.2502 42.8925C14.991 43.3034 14.8885 43.7936 14.9615 44.2736C15.0345 44.7536 15.278 45.1914 15.6477 45.507C16.0173 45.8227 16.4885 45.9952 16.975 45.993C17.4616 45.9907 17.9311 45.814 18.2979 45.495C18.0462 44.9351 17.9379 44.3215 17.9825 43.7095C18.0271 43.0975 18.2234 42.5061 18.5536 41.9884L20.4856 39.0723C20.615 38.9016 20.8048 38.7865 21.0163 38.7505C21.2277 38.7144 21.445 38.7601 21.6239 38.8782C21.8028 38.9964 21.9299 39.1781 21.9793 39.3864C22.0286 39.5947 21.9966 39.814 21.8897 39.9996L19.9781 42.8925C19.7142 43.3442 19.6357 43.8803 19.7593 44.3884C19.8828 44.8965 20.1987 45.3371 20.6408 45.6179C21.0828 45.8986 21.6166 45.9977 22.1303 45.8943C22.6439 45.7909 23.0975 45.4931 23.3958 45.0633L27.5265 38.5877H33.1687C33.7061 38.5873 34.2214 38.3741 34.6012 37.9948C34.9811 37.6155 35.1945 37.1012 35.1945 36.5649V29.826C35.1945 25.6759 30.6938 23.0816 27.0911 25.1559C26.3515 25.5834 25.7232 26.1787 25.2571 26.8936L25.2639 26.9181L26.2435 30.5007H28.4408C31.0394 30.5007 32.6653 33.3081 31.3659 35.5549C31.0695 36.0672 30.6431 36.4925 30.1296 36.788C29.6161 37.0835 29.0336 37.2388 28.4408 37.2383V37.2396ZM28.6394 40.6091L25.1986 45.9986H35.4734C35.2893 45.5734 35.1944 45.1151 35.1945 44.6519V40.0674C34.5783 40.4225 33.8789 40.6089 33.1673 40.6077L28.6394 40.6091ZM37.2204 32.6931C38.0127 32.1412 38.9561 31.8459 39.9224 31.8474H43.2993V31.174C43.2995 30.4659 43.1598 29.7647 42.8883 29.1105C42.6168 28.4563 42.2187 27.8619 41.7168 27.3612C41.2149 26.8606 40.6191 26.4635 39.9634 26.1927C39.3076 25.922 38.6049 25.7828 37.8952 25.7831H36.0177C36.7796 26.9466 37.2204 28.3354 37.2204 29.826V32.6931ZM15.3523 26.4565C15.1445 26.4563 14.9394 26.5039 14.7531 26.5957C14.5667 26.6875 14.4041 26.8209 14.2779 26.9856C14.1516 27.1504 14.0652 27.3419 14.0252 27.5454C13.9853 27.7489 13.9929 27.9588 14.0475 28.1589L15.6094 33.8702C15.6094 34.6141 16.2135 35.2169 16.9591 35.2169H28.4408C28.6217 35.2226 28.8019 35.192 28.9708 35.1269C29.1396 35.0617 29.2936 34.9634 29.4237 34.8377C29.5537 34.712 29.6571 34.5616 29.7277 34.3952C29.7983 34.2289 29.8346 34.0501 29.8346 33.8695C29.8346 33.6888 29.7983 33.5101 29.7277 33.3437C29.6571 33.1774 29.5537 33.0269 29.4237 32.9012C29.2936 32.7756 29.1396 32.6772 28.9708 32.6121C28.8019 32.547 28.6217 32.5164 28.4408 32.5221H24.6938L23.3088 27.4502C23.2315 27.1645 23.0618 26.9122 22.8261 26.7326C22.5905 26.5529 22.302 26.4558 22.0054 26.4565H15.3523ZM39.9224 33.8688C39.5675 33.8686 39.2161 33.9382 38.8882 34.0737C38.5603 34.2091 38.2623 34.4077 38.0114 34.6581C37.7604 34.9085 37.5614 35.2058 37.4257 35.5329C37.29 35.8601 37.2202 36.2108 37.2204 36.5649V44.6519C37.2204 45.3959 37.8258 46 38.5714 46H44.649C45.0073 46 45.3509 45.858 45.6043 45.6052C45.8577 45.3524 46 45.0095 46 44.6519V36.5649C45.9996 35.8501 45.7148 35.1647 45.2081 34.6594C44.7014 34.154 44.0143 33.8702 43.298 33.8702L39.9224 33.8688Z" fill="black"/>
</svg>
