<svg width="95" height="52" viewBox="0 0 95 52" fill="none" xmlns="http://www.w3.org/2000/svg">
<g clip-path="url(#clip0_30_60)">
<path d="M48 52.3047C62.3594 52.3047 74 40.6641 74 26.3047C74 11.9453 62.3594 0.304688 48 0.304688C33.6406 0.304688 22 11.9453 22 26.3047C22 40.6641 33.6406 52.3047 48 52.3047Z" fill="#EABD11"/>
<path fill-rule="evenodd" clip-rule="evenodd" d="M28.1826 43.1316C28.1681 43.1151 28.1515 43.0964 28.137 43.0798C25.4674 39.921 23.5357 36.1198 22.6135 31.9391C22.6093 31.9204 22.6031 31.9018 22.6011 31.8811C22.2073 30.084 22 28.2186 22 26.3033C22 24.3901 22.2073 22.5226 22.6011 20.7255C22.6052 20.7089 22.6093 20.6902 22.6114 20.6736C23.5358 16.4868 25.4696 12.6816 28.1413 9.52017C28.1558 9.50359 28.1703 9.48701 28.1869 9.47043C28.6428 8.93361 29.1195 8.41748 29.617 7.92003C34.3218 3.21499 40.8215 0.304688 48.0009 0.304688C55.1804 0.304688 61.6802 3.21478 66.3849 7.92003C71.0898 12.6251 74 19.125 74 26.3047C74 33.4844 71.09 39.9844 66.3849 44.6893C61.6801 49.3944 55.1804 52.3047 48.0009 52.3047C40.8215 52.3047 34.3217 49.3946 29.617 44.6893C29.1175 44.1919 28.6387 43.6696 28.1806 43.1327L28.1826 43.1316ZM29.6645 41.1004H46.7825V32.8616H25.3641C26.2449 35.9064 27.7224 38.6983 29.6645 41.1004ZM46.7825 43.5379H31.9344C35.8662 47.2046 41.0558 49.5423 46.7825 49.8347V43.5379ZM24.7979 30.4217H46.7825V22.1829H24.7979C24.5616 23.5219 24.4393 24.8961 24.4393 26.3034C24.4393 27.7087 24.5637 29.085 24.8 30.424L24.7979 30.4217ZM25.3637 19.7453H46.7822V11.5065H29.6642C27.7221 13.9087 26.2446 16.7007 25.3637 19.7453ZM31.9341 9.06671H46.7822V2.76993C41.0555 3.06218 35.8658 5.40018 31.9341 9.06671Z" fill="#062341"/>
</g>
<defs>
<clipPath id="clip0_30_60">
<rect width="95" height="52" fill="white"/>
</clipPath>
</defs>
</svg>
