<svg width="24" height="25" viewBox="0 0 24 25" fill="none" xmlns="http://www.w3.org/2000/svg">
<path d="M20.1328 10.2266L18.0469 6.54688C17.6562 5.8125 17.1016 5.23828 16.3828 4.82422C15.6641 4.41016 14.8828 4.20312 14.0391 4.20312H11.0859V3.26562C11.0859 2.5 11.3555 1.84766 11.8945 1.30859C12.4336 0.769531 13.0859 0.5 13.8516 0.5H21.2344C22 0.5 22.6523 0.769531 23.1914 1.30859C23.7305 1.84766 24 2.5 24 3.26562V10.6484C24 11.4141 23.7305 12.0664 23.1914 12.6055C22.6523 13.1445 22 13.4141 21.2344 13.4141H20.625C20.6562 13.2734 20.6797 13.125 20.6953 12.9688C20.7109 12.8125 20.7188 12.6562 20.7188 12.5C20.7188 12.0938 20.6719 11.6992 20.5781 11.3164C20.4844 10.9336 20.3359 10.5703 20.1328 10.2266ZM6.46875 9.73438C7.60938 9.73438 8.67969 9.95312 9.67969 10.3906C10.6953 10.8281 11.5781 11.4219 12.3281 12.1719C13.0781 12.9219 13.6719 13.8047 14.1094 14.8203C14.5469 15.8203 14.7656 16.8906 14.7656 18.0312C14.7656 18.1719 14.7617 18.3125 14.7539 18.4531C14.7461 18.5938 14.7344 18.7344 14.7188 18.875C15.0781 18.7812 15.4102 18.6211 15.7148 18.3945C16.0195 18.168 16.2656 17.8828 16.4531 17.5391L18.5156 13.8594C18.6406 13.6562 18.7305 13.4414 18.7852 13.2148C18.8398 12.9883 18.8672 12.75 18.8672 12.5C18.8672 12.25 18.8398 12.0117 18.7852 11.7852C18.7305 11.5586 18.6406 11.3438 18.5156 11.1406L16.4531 7.4375C16.2031 7.01562 15.8633 6.67578 15.4336 6.41797C15.0039 6.16016 14.5391 6.03125 14.0391 6.03125H9.96094C9.46094 6.03125 8.99609 6.16016 8.56641 6.41797C8.13672 6.67578 7.79688 7.02344 7.54688 7.46094L6.25781 9.73438C6.28906 9.73438 6.32422 9.73438 6.36328 9.73438C6.40234 9.73438 6.4375 9.73438 6.46875 9.73438ZM6.46875 11.5859C5.57812 11.5859 4.73438 11.75 3.9375 12.0781C3.15625 12.4219 2.47266 12.8867 1.88672 13.4727C1.30078 14.0586 0.84375 14.7422 0.515625 15.5234C0.171875 16.3047 0 17.1406 0 18.0312C0 18.9219 0.171875 19.7656 0.515625 20.5625C0.84375 21.3438 1.30078 22.0273 1.88672 22.6133C2.47266 23.1992 3.15625 23.6562 3.9375 23.9844C4.73438 24.3281 5.57812 24.5 6.46875 24.5C7.35938 24.5 8.19531 24.3281 8.97656 23.9844C9.75781 23.6562 10.4414 23.1992 11.0273 22.6133C11.6133 22.0273 12.0781 21.3438 12.4219 20.5625C12.75 19.7656 12.9141 18.9219 12.9141 18.0312C12.9141 17.1406 12.75 16.3047 12.4219 15.5234C12.0781 14.7422 11.6133 14.0586 11.0273 13.4727C10.4414 12.8867 9.75781 12.4219 8.97656 12.0781C8.19531 11.75 7.35938 11.5859 6.46875 11.5859ZM6.46875 11.5859C5.57812 11.5859 4.73438 11.75 3.9375 12.0781C3.15625 12.4219 2.47266 12.8867 1.88672 13.4727C1.30078 14.0586 0.84375 14.7422 0.515625 15.5234C0.171875 16.3047 0 17.1406 0 18.0312C0 18.9219 0.171875 19.7656 0.515625 20.5625C0.84375 21.3438 1.30078 22.0273 1.88672 22.6133C2.47266 23.1992 3.15625 23.6562 3.9375 23.9844C4.73438 24.3281 5.57812 24.5 6.46875 24.5C7.35938 24.5 8.19531 24.3281 8.97656 23.9844C9.75781 23.6562 10.4414 23.1992 11.0273 22.6133C11.6133 22.0273 12.0781 21.3438 12.4219 20.5625C12.75 19.7656 12.9141 18.9219 12.9141 18.0312C12.9141 17.1406 12.75 16.3047 12.4219 15.5234C12.0781 14.7422 11.6133 14.0586 11.0273 13.4727C10.4414 12.8867 9.75781 12.4219 8.97656 12.0781C8.19531 11.75 7.35938 11.5859 6.46875 11.5859ZM6.46875 12.3828C7.25 12.3828 7.98438 12.5312 8.67188 12.8281C9.35938 13.125 9.95703 13.5273 10.4648 14.0352C10.9727 14.543 11.375 15.1406 11.6719 15.8281C11.9688 16.5156 12.1172 17.25 12.1172 18.0312C12.1172 18.8125 11.9688 19.5469 11.6719 20.2344C11.375 20.9219 10.9727 21.5234 10.4648 22.0391C9.95703 22.5547 9.35938 22.9609 8.67188 23.2578C7.98438 23.5547 7.25 23.7031 6.46875 23.7031C5.6875 23.7031 4.95312 23.5547 4.26562 23.2578C3.57812 22.9609 2.97656 22.5547 2.46094 22.0391C1.94531 21.5234 1.53906 20.9219 1.24219 20.2344C0.945312 19.5469 0.796875 18.8125 0.796875 18.0312C0.796875 17.25 0.945312 16.5156 1.24219 15.8281C1.53906 15.1406 1.94531 14.543 2.46094 14.0352C2.97656 13.5273 3.57812 13.125 4.26562 12.8281C4.95312 12.5312 5.6875 12.3828 6.46875 12.3828ZM9.96094 6.03125C9.46094 6.03125 8.99609 6.16016 8.56641 6.41797C8.13672 6.67578 7.79688 7.02344 7.54688 7.46094L6.25781 9.73438C6.28906 9.73438 6.32422 9.73438 6.36328 9.73438C6.40234 9.73438 6.4375 9.73438 6.46875 9.73438C7.60938 9.73438 8.67969 9.95312 9.67969 10.3906C10.6953 10.8281 11.5781 11.4219 12.3281 12.1719C13.0781 12.9219 13.6719 13.8047 14.1094 14.8203C14.5469 15.8203 14.7656 16.8906 14.7656 18.0312C14.7656 18.1719 14.7617 18.3125 14.7539 18.4531C14.7461 18.5938 14.7344 18.7344 14.7188 18.875C15.0781 18.7812 15.4102 18.6211 15.7148 18.3945C16.0195 18.168 16.2656 17.8828 16.4531 17.5391L18.5156 13.8594C18.6406 13.6562 18.7305 13.4414 18.7852 13.2148C18.8398 12.9883 18.8672 12.75 18.8672 12.5C18.8672 12.25 18.8398 12.0117 18.7852 11.7852C18.7305 11.5586 18.6406 11.3438 18.5156 11.1406L16.4531 7.4375C16.2031 7.01562 15.8633 6.67578 15.4336 6.41797C15.0039 6.16016 14.5391 6.03125 14.0391 6.03125H9.96094ZM9.96094 6.82812H14.0391C14.3984 6.82812 14.7305 6.91797 15.0352 7.09766C15.3398 7.27734 15.5781 7.52344 15.75 7.83594L17.8125 11.5156C17.9062 11.6719 17.9727 11.832 18.0117 11.9961C18.0508 12.1602 18.0703 12.3281 18.0703 12.5C18.0703 12.6719 18.0508 12.8398 18.0117 13.0039C17.9727 13.168 17.9141 13.3281 17.8359 13.4844L15.75 17.1406C15.7344 17.1875 15.7109 17.2305 15.6797 17.2695C15.6484 17.3086 15.6172 17.3516 15.5859 17.3984L15.5391 17.4453V17.3281C15.4609 16.25 15.2031 15.2422 14.7656 14.3047C14.3281 13.3516 13.7578 12.5039 13.0547 11.7617C12.3516 11.0195 11.5312 10.4062 10.5938 9.92188C9.67188 9.45312 8.67969 9.14844 7.61719 9.00781H7.59375L8.25 7.83594C8.40625 7.55469 8.625 7.32422 8.90625 7.14453C9.1875 6.96484 9.49219 6.86719 9.82031 6.85156L9.96094 6.82812ZM13.8516 0.5C13.0859 0.5 12.4336 0.769531 11.8945 1.30859C11.3555 1.84766 11.0859 2.5 11.0859 3.26562V4.20312H14.0391C14.8828 4.20312 15.6641 4.41016 16.3828 4.82422C17.1016 5.23828 17.6562 5.8125 18.0469 6.54688L20.1328 10.2266C20.3359 10.5703 20.4844 10.9336 20.5781 11.3164C20.6719 11.6992 20.7188 12.0938 20.7188 12.5C20.7188 12.6562 20.7109 12.8125 20.6953 12.9688C20.6797 13.125 20.6562 13.2734 20.625 13.4141H21.2344C22 13.4141 22.6523 13.1445 23.1914 12.6055C23.7305 12.0664 24 11.4141 24 10.6484V3.26562C24 2.5 23.7305 1.84766 23.1914 1.30859C22.6523 0.769531 22 0.5 21.2344 0.5H13.8516ZM13.8516 1.29688H21.2344C21.7812 1.29688 22.2461 1.48828 22.6289 1.87109C23.0117 2.25391 23.2031 2.71875 23.2031 3.26562V10.6484C23.2031 11.1328 23.0508 11.5547 22.7461 11.9141C22.4414 12.2734 22.0625 12.5 21.6094 12.5938H21.5156V12.5C21.5156 12.2812 21.5039 12.0664 21.4805 11.8555C21.457 11.6445 21.4219 11.4375 21.375 11.2344L21.3281 11.0234H21.5156L18.75 6.14844C18.2812 5.30469 17.625 4.63281 16.7812 4.13281C15.9375 3.63281 15.0234 3.38281 14.0391 3.38281H11.8828V3.26562C11.8828 2.75 12.0586 2.30078 12.4102 1.91797C12.7617 1.53516 13.1953 1.32812 13.7109 1.29688H13.8516Z" fill="#EABD11"/>
</svg>
